# Blender 3.6.1
# www.blender.org
mtllib block.mtl
o Cube
v 2.158631 1.815131 -2.702956
v 2.083860 -1.137401 -0.005371
v 1.907552 4.511331 0.241100
v 1.832781 1.558799 2.938685
v -1.832781 1.700837 -2.938685
v -1.907552 -1.251696 -0.241100
v -2.083860 4.397036 0.005371
v -2.158631 1.444504 2.702956
vn 0.0187 0.7381 -0.6744
vn -0.0628 0.6740 0.7360
vn -0.9979 -0.0286 -0.0589
vn -0.0187 -0.7381 0.6744
vn 0.9979 0.0286 0.0589
vn 0.0628 -0.6740 -0.7360
vt 0.625000 0.500000
vt 0.875000 0.500000
vt 0.875000 0.750000
vt 0.625000 0.750000
vt 0.375000 0.750000
vt 0.625000 1.000000
vt 0.375000 1.000000
vt 0.375000 0.000000
vt 0.625000 0.000000
vt 0.625000 0.250000
vt 0.375000 0.250000
vt 0.125000 0.500000
vt 0.375000 0.500000
vt 0.125000 0.750000
s 0
usemtl Material
f 1/1/1 5/2/1 7/3/1 3/4/1
f 4/5/2 3/4/2 7/6/2 8/7/2
f 8/8/3 7/9/3 5/10/3 6/11/3
f 6/12/4 2/13/4 4/5/4 8/14/4
f 2/13/5 1/1/5 3/4/5 4/5/5
f 6/11/6 5/10/6 1/1/6 2/13/6
